<svg width="131" height="131" viewBox="0 0 131 131" fill="none" xmlns="http://www.w3.org/2000/svg">
<path d="M71.6118 59.7648L59.7353 59.5134L59.6925 57.4872L74.8825 57.8088L75.204 73.0053L73.1787 72.9624L72.9334 61.3687L56.859 77.8676L55.3115 76.3194L71.6118 59.7648Z" fill="#282828"/>
<path d="M116.485 69.7207C116.589 68.3807 116.999 67.3733 117.716 66.6986C118.432 66.0331 119.322 65.7135 120.388 65.7397L120.293 66.968C118.568 67.0031 117.632 67.9652 117.486 69.8542C117.431 70.5708 117.545 71.1553 117.828 71.6078C118.12 72.0704 118.568 72.325 119.173 72.3718C119.443 72.3927 119.684 72.3598 119.897 72.2733C120.109 72.1868 120.287 72.0741 120.428 71.9353C120.57 71.8058 120.707 71.6011 120.841 71.3213C120.975 71.0414 121.084 70.7784 121.169 70.5322C121.253 70.2953 121.358 69.9664 121.484 69.5455C121.635 69.0424 121.779 68.6276 121.917 68.3012C122.064 67.9756 122.252 67.6532 122.483 67.334C122.714 67.0148 122.994 66.7837 123.323 66.6407C123.661 66.5077 124.058 66.4588 124.514 66.4941C125.333 66.5574 125.951 66.9142 126.369 67.5643C126.795 68.2245 126.969 69.0664 126.89 70.09C126.717 72.3326 125.582 73.5133 123.485 73.632L123.576 72.4455C124.291 72.4072 124.842 72.183 125.229 71.773C125.626 71.3637 125.853 70.7868 125.911 70.0423C125.964 69.3537 125.867 68.7939 125.619 68.3629C125.371 67.9411 124.991 67.7105 124.479 67.6709C124.256 67.6536 124.052 67.68 123.869 67.7501C123.694 67.8302 123.541 67.9354 123.409 68.0656C123.286 68.2059 123.169 68.3887 123.058 68.6142C122.946 68.8489 122.849 69.0801 122.766 69.3077C122.692 69.536 122.61 69.8152 122.519 70.1451C122.39 70.6032 122.272 70.9779 122.165 71.2692C122.067 71.5612 121.926 71.8826 121.739 72.2333C121.553 72.5839 121.35 72.8491 121.13 73.0287C120.91 73.2176 120.627 73.3688 120.281 73.4825C119.944 73.6062 119.556 73.6512 119.119 73.6173C118.207 73.5468 117.517 73.1518 117.048 72.4321C116.588 71.7226 116.4 70.8187 116.485 69.7207Z" fill="#282828"/>
<path d="M116.231 74.4399L125.931 76.9121L125.62 78.1331L121.496 77.082L120.176 82.2646L124.3 83.3157L123.989 84.5367L114.289 82.0645L114.6 80.8435L119.186 82.0122L120.505 76.8296L115.92 75.6609L116.231 74.4399Z" fill="#282828"/>
<path d="M111.581 91.1725C111.073 89.9521 111.136 88.6709 111.77 87.3288C112.403 85.9868 113.354 85.1199 114.622 84.7282C115.887 84.3449 117.207 84.4781 118.583 85.1279C119.958 85.7777 120.9 86.7128 121.408 87.9332C121.911 89.162 121.846 90.4475 121.213 91.7895C120.58 93.1316 119.631 93.9942 118.366 94.3775C117.098 94.7693 115.776 94.6402 114.4 93.9905C113.024 93.3407 112.085 92.4014 111.581 91.1725ZM114.943 85.886C113.98 86.1331 113.256 86.7715 112.77 87.8012C112.284 88.831 112.251 89.7962 112.672 90.6971C113.093 91.5979 113.853 92.3074 114.95 92.8257C116.047 93.3439 117.077 93.4795 118.04 93.2324C119.011 92.9893 119.74 92.3529 120.226 91.3231C120.712 90.2934 120.74 89.3261 120.31 88.4213C119.889 87.5205 119.13 86.8109 118.033 86.2927C116.936 85.7745 115.906 85.6389 114.943 85.886Z" fill="#282828"/>
<path d="M108.369 94.0251L117.871 98.0994L117.067 99.1408L110.95 96.41L109.379 95.6728L109.362 95.6949C109.826 96.2544 110.194 96.7164 110.467 97.0807L114.49 102.475L113.66 103.55L107.462 100.969L105.852 100.237L105.835 100.259C106.306 100.824 106.673 101.273 106.935 101.606L111.066 106.906L110.287 107.915L104.072 99.5863L104.808 98.6336L111.511 101.499L112.941 102.144L112.958 102.122C112.549 101.629 112.224 101.218 111.982 100.89L107.599 95.0221L108.369 94.0251Z" fill="#282828"/>
<path d="M99.1637 104.593L104.961 112.753L103.649 113.686L96.1857 108.789L96.1629 108.805L98.3552 117.451L97.0203 118.4L91.2227 110.24L92.2039 109.542L96.9718 116.253L96.9946 116.236C96.8364 115.708 96.7148 115.279 96.6299 114.95L94.8281 107.676L95.6153 107.116L101.89 111.21L102.985 111.977L103.007 111.961L98.2395 105.25L99.1637 104.593Z" fill="#282828"/>
<path d="M83.1882 115.21C83.6092 113.957 84.4997 113.034 85.8598 112.44C87.2199 111.847 88.5065 111.82 89.7194 112.36C90.9237 112.904 91.8299 113.873 92.438 115.267C93.0461 116.662 93.1396 117.985 92.7187 119.238C92.2892 120.495 91.3944 121.42 90.0342 122.014C88.6741 122.607 87.3919 122.632 86.1875 122.089C84.9746 121.549 84.0641 120.582 83.4561 119.187C82.848 117.792 82.7587 116.467 83.1882 115.21ZM89.1987 113.443C88.3111 112.995 87.3455 112.999 86.3019 113.454C85.2583 113.91 84.5986 114.615 84.3228 115.57C84.047 116.526 84.1516 117.56 84.6366 118.672C85.1215 119.784 85.8078 120.564 86.6954 121.012C87.5867 121.468 88.5542 121.468 89.5978 121.013C90.6414 120.557 91.2992 119.848 91.5713 118.884C91.8471 117.928 91.7425 116.895 91.2575 115.782C90.7725 114.67 90.0863 113.89 89.1987 113.443Z" fill="#282828"/>
<path d="M80.2809 114.837L82.4548 124.608L77.8906 125.625C77.0342 125.815 76.2871 125.723 75.6493 125.349C75.0023 124.977 74.5896 124.39 74.4113 123.588C74.1336 122.34 74.519 121.408 75.5676 120.792L75.5585 120.751C75.0371 120.685 74.6347 120.488 74.3512 120.159C74.0605 119.841 73.8094 119.314 73.5976 118.577C73.2288 117.349 72.9234 116.686 72.6815 116.587L72.6693 116.532L73.9948 116.237C74.1133 116.297 74.2247 116.453 74.329 116.707C74.4242 116.964 74.5934 117.509 74.8366 118.344C75.0403 119.045 75.3294 119.506 75.704 119.729C76.0695 119.953 76.5848 119.992 77.2498 119.844L79.9692 119.238L79.051 115.111L80.2809 114.837ZM80.9878 123.816L80.1912 120.236L77.2941 120.881C76.62 121.031 76.1442 121.299 75.867 121.686C75.5917 122.082 75.5169 122.563 75.6426 123.127C75.7784 123.738 76.0336 124.154 76.4082 124.377C76.7828 124.599 77.3209 124.633 78.0224 124.476L80.9878 123.816Z" fill="#282828"/>
<path d="M71.4322 116.621L71.9339 126.619L64.8728 126.973L64.8174 125.869L70.6201 125.577L70.4615 122.417L65.1901 122.682L65.1368 121.619L70.4082 121.354L70.232 117.845L64.2616 118.145L64.2033 116.984L71.4322 116.621Z" fill="#282828"/>
<path d="M58.7087 119.582L58.5386 120.533L52.6541 119.48L52.8241 118.529L58.7087 119.582Z" fill="#282828"/>
<path d="M45.1747 112.437C46.4105 112.965 47.233 113.677 47.642 114.573C48.0425 115.465 48.0595 116.411 47.693 117.412L46.5602 116.927C47.0803 115.282 46.4694 114.087 44.7273 113.342C44.0665 113.06 43.4763 112.98 42.9569 113.103C42.4252 113.231 42.0402 113.574 41.8019 114.132C41.6956 114.38 41.6493 114.62 41.663 114.849C41.6768 115.078 41.7266 115.282 41.8126 115.461C41.89 115.636 42.0397 115.832 42.2617 116.049C42.4838 116.265 42.6978 116.453 42.9039 116.613C43.1013 116.768 43.3791 116.973 43.7372 117.228C44.1652 117.532 44.5117 117.802 44.7766 118.038C45.0379 118.281 45.2827 118.563 45.511 118.884C45.7393 119.205 45.8683 119.545 45.8981 119.903C45.9157 120.265 45.8346 120.657 45.655 121.078C45.3323 121.833 44.7961 122.304 44.0464 122.491C43.2844 122.683 42.4314 122.577 41.4874 122.173C39.4192 121.289 38.6652 119.835 39.2254 117.811L40.3195 118.279C40.1267 118.968 40.1623 119.562 40.4263 120.06C40.6867 120.567 41.1601 120.968 41.8467 121.261C42.4817 121.533 43.043 121.62 43.5306 121.524C44.0097 121.425 44.35 121.139 44.5517 120.667C44.6397 120.461 44.6799 120.26 44.6723 120.064C44.6525 119.872 44.602 119.694 44.521 119.527C44.4277 119.365 44.2921 119.196 44.1142 119.018C43.9277 118.837 43.74 118.67 43.5512 118.518C43.3586 118.375 43.1207 118.208 42.8374 118.015C42.445 117.746 42.128 117.514 41.8864 117.319C41.6411 117.133 41.3822 116.896 41.1099 116.607C40.8375 116.318 40.6516 116.04 40.552 115.774C40.4439 115.505 40.3914 115.188 40.3947 114.824C40.3857 114.465 40.4674 114.084 40.6397 113.68C40.9991 112.839 41.5946 112.312 42.4264 112.099C43.246 111.892 44.1621 112.004 45.1747 112.437Z" fill="#282828"/>
<path d="M40.845 110.696L35.3805 119.083L34.3251 118.395L36.6485 114.829L32.1688 111.908L29.8454 115.474L28.79 114.786L34.2545 106.399L35.3099 107.087L32.7267 111.052L37.2064 113.973L39.7896 110.008L40.845 110.696Z" fill="#282828"/>
<path d="M26.5454 100.977C27.8633 100.882 29.0581 101.348 30.1299 102.375C31.2017 103.401 31.7223 104.578 31.6919 105.906C31.6547 107.227 31.1102 108.438 30.0584 109.537C29.0066 110.636 27.8217 111.233 26.5038 111.328C25.1792 111.416 23.981 110.947 22.9092 109.92C21.8375 108.894 21.3202 107.72 21.3574 106.399C21.3878 105.071 21.9289 103.857 22.9807 102.758C24.0326 101.659 25.2208 101.065 26.5454 100.977ZM30.4926 105.843C30.5634 104.851 30.1876 103.961 29.3652 103.174C28.5429 102.386 27.638 102.049 26.6505 102.163C25.663 102.277 24.7498 102.773 23.9109 103.649C23.0721 104.526 22.6173 105.46 22.5465 106.452C22.4693 107.451 22.8418 108.344 23.6642 109.131C24.4865 109.919 25.3947 110.252 26.3886 110.132C27.3761 110.018 28.2893 109.523 29.1282 108.646C29.967 107.769 30.4218 106.835 30.4926 105.843Z" fill="#282828"/>
<path d="M24.8999 97.054L18.0418 104.793L17.3073 103.701L21.8247 98.7531L23.0189 97.4934L23.0033 97.4702C22.3263 97.7346 21.772 97.939 21.3404 98.0833L14.9554 100.205L14.1975 99.0779L18.5978 94.0059L19.7997 92.7074L19.784 92.6841C19.0993 92.9538 18.558 93.1607 18.16 93.3049L11.8299 95.558L11.1188 94.5009L20.9774 91.2225L21.6494 92.2215L16.8198 97.6838L15.7571 98.838L15.7727 98.8612C16.3696 98.6282 16.8619 98.4486 17.2496 98.3227L24.1967 96.0085L24.8999 97.054Z" fill="#282828"/>
<path d="M17.7766 84.9344L8.18826 87.809L7.72628 86.2667L14.76 80.7672L14.752 80.7404L5.86229 80.0439L5.39227 78.4747L14.9807 75.6002L15.3261 76.7536L7.44087 79.1175L7.4489 79.1443C8.00044 79.1641 8.4456 79.1866 8.78438 79.2117L16.2501 79.8381L16.5273 80.7635L10.6363 85.3943L9.55794 86.1853L9.56598 86.2121L17.4512 83.8481L17.7766 84.9344Z" fill="#282828"/>
<path d="M12.858 66.4811C13.9096 67.2815 14.4982 68.421 14.6239 69.8997C14.7496 71.3784 14.3622 72.6056 13.4616 73.5815C12.5603 74.5481 11.3517 75.0959 9.83581 75.2248C8.31995 75.3538 7.03623 75.0181 5.98465 74.2177C4.93227 73.408 4.34323 72.2639 4.21752 70.7852C4.09181 69.3065 4.47963 68.0839 5.38099 67.1173C6.28156 66.1415 7.48977 65.589 9.00563 65.4601C10.5215 65.3311 11.8056 65.6714 12.858 66.4811ZM12.6034 72.7413C13.3122 72.044 13.6184 71.1281 13.5219 69.9935C13.4254 68.8589 12.969 68.0079 12.1527 67.4404C11.3364 66.8729 10.3237 66.6406 9.11474 66.7434C7.90577 66.8463 6.94688 67.2464 6.23807 67.9436C5.51996 68.6417 5.20913 69.558 5.30559 70.6926C5.40205 71.8272 5.8631 72.6778 6.68874 73.2445C7.50508 73.812 8.51773 74.0443 9.7267 73.9415C10.9357 73.8386 11.8946 73.4385 12.6034 72.7413Z" fill="#282828"/>
<path d="M14.1284 63.7542L4.1726 62.7136L4.65826 58.0629C4.74938 57.1903 5.07369 56.511 5.63118 56.025C6.18964 55.5297 6.87732 55.3247 7.6942 55.4101C8.96594 55.543 9.72736 56.2044 9.97847 57.3943L10.0202 57.3987C10.248 56.9251 10.5628 56.6061 10.9647 56.4417C11.3584 56.267 11.9382 56.1962 12.7042 56.2293C13.9856 56.2694 14.7118 56.1905 14.8826 55.9925L14.9383 55.9983L14.7972 57.349C14.703 57.4424 14.5189 57.4982 14.2449 57.5165C13.9718 57.5255 13.4007 57.5127 12.5316 57.4782C11.8027 57.4489 11.2732 57.5766 10.9432 57.8611C10.6142 58.1364 10.4143 58.6129 10.3435 59.2905L10.0541 62.0615L14.2592 62.501L14.1284 63.7542ZM5.38955 61.5739L9.03768 61.9552L9.34594 59.0033C9.41767 58.3164 9.31415 57.78 9.03537 57.3943C8.74731 57.0076 8.31552 56.7842 7.73999 56.724C7.11804 56.659 6.64206 56.7688 6.31206 57.0534C5.98205 57.3379 5.77972 57.8376 5.70508 58.5524L5.38955 61.5739Z" fill="#282828"/>
<path d="M15.2188 54.8329L5.588 52.1039L7.51396 45.3013L8.57806 45.6028L6.99535 51.193L10.0395 52.0556L11.4773 46.9772L12.501 47.2673L11.0632 52.3457L14.4441 53.3037L16.0726 47.5518L17.1905 47.8686L15.2188 54.8329Z" fill="#282828"/>
<path d="M16.4058 41.9392L15.56 41.4724L18.4465 36.2375L19.2923 36.7042L16.4058 41.9392Z" fill="#282828"/>
<path d="M27.5946 31.2434C26.6977 32.2444 25.7596 32.7947 24.7805 32.8944C23.8075 32.9871 22.9063 32.6991 22.0769 32.0304L22.8991 31.1129C24.2896 32.1344 25.6172 31.9397 26.8816 30.5287C27.3612 29.9935 27.6262 29.4601 27.6765 28.9285C27.726 28.3837 27.525 27.9087 27.0734 27.5037C26.8719 27.323 26.6605 27.2023 26.4391 27.1416C26.2177 27.081 26.0085 27.0627 25.8116 27.0866C25.6209 27.1036 25.3873 27.1825 25.1108 27.3232C24.8344 27.4639 24.5877 27.6063 24.3709 27.7503C24.1603 27.8874 23.877 28.0847 23.521 28.3421C23.0951 28.6496 22.7283 28.8911 22.4207 29.0665C22.1061 29.2357 21.7603 29.3769 21.3832 29.49C21.0061 29.6032 20.6434 29.6163 20.295 29.5296C19.9459 29.4296 19.6012 29.227 19.2607 28.9216C18.6493 28.3732 18.3754 27.7138 18.4391 26.9435C18.5021 26.16 18.8761 25.3859 19.5613 24.6214C21.0625 22.9462 22.6812 22.6992 24.4175 23.8804L23.6233 24.7666C23.033 24.3625 22.4594 24.2054 21.9026 24.2953C21.3389 24.3789 20.8079 24.6988 20.3096 25.2548C19.8486 25.7692 19.5853 26.2728 19.5197 26.7656C19.4603 27.2514 19.6217 27.6657 20.0038 28.0084C20.1706 28.158 20.348 28.2607 20.5361 28.3165C20.7234 28.3592 20.909 28.3689 21.0928 28.3457C21.2758 28.3092 21.4799 28.2353 21.7051 28.1238C21.9365 28.0054 22.1544 27.8812 22.3588 27.751C22.5562 27.6146 22.7913 27.4431 23.0642 27.2365C23.4451 26.9513 23.7665 26.7255 24.0284 26.5592C24.2833 26.3866 24.5913 26.2178 24.9523 26.0526C25.3134 25.8875 25.6357 25.8005 25.9194 25.7916C26.2093 25.7758 26.526 25.8279 26.8696 25.948C27.2124 26.0549 27.5471 26.2548 27.8737 26.5477C28.5546 27.1584 28.8622 27.892 28.7966 28.7484C28.7303 29.5916 28.3296 30.4233 27.5946 31.2434Z" fill="#282828"/>
<path d="M30.4133 27.8673L24.178 20.0365L25.1633 19.2513L27.8144 22.5807L31.9967 19.2476L29.3456 15.9182L30.331 15.1329L36.5663 22.9637L35.581 23.749L32.6334 20.0471L28.451 23.3802L31.3986 27.082L30.4133 27.8673Z" fill="#282828"/>
<path d="M44.3039 17.2531C43.9724 18.5327 43.1492 19.5165 41.8343 20.2045C40.5194 20.8926 39.238 21.0101 37.9901 20.557C36.7504 20.0996 35.7782 19.1969 35.0733 17.8487C34.3684 16.5005 34.1818 15.1866 34.5133 13.9071C34.8531 12.6232 35.6805 11.6372 36.9953 10.9492C38.3102 10.2612 39.5875 10.1458 40.8271 10.6032C42.0751 11.0562 43.0515 11.9569 43.7563 13.305C44.4612 14.6532 44.6437 15.9693 44.3039 17.2531ZM38.4331 19.4403C39.3501 19.8243 40.313 19.7523 41.3219 19.2244C42.3308 18.6965 42.9391 17.9463 43.1468 16.9738C43.3545 16.0013 43.1773 14.9774 42.6151 13.9022C42.053 12.827 41.3134 12.0974 40.3965 11.7134C39.4752 11.3211 38.5102 11.389 37.5013 11.9169C36.4924 12.4448 35.8862 13.1992 35.6828 14.1799C35.4751 15.1524 35.6523 16.1763 36.2145 17.2515C36.7767 18.3268 37.5162 19.0564 38.4331 19.4403Z" fill="#282828"/>
<path d="M48.5154 16.922L43.3985 7.93786L44.6686 7.59351L47.8976 13.4631L48.7053 14.9993L48.7323 14.992C48.7 14.2658 48.6851 13.6751 48.6875 13.22L48.7358 6.49086L50.0465 6.13552L53.4303 11.9341L54.2723 13.49L54.2994 13.4827C54.2646 12.7475 54.2431 12.1683 54.2348 11.745L54.1407 5.02555L55.3703 4.69219L55.2985 15.083L54.1365 15.398L50.5216 9.06736L49.7713 7.68969L49.7442 7.69702C49.7726 8.33723 49.784 8.86117 49.7784 9.26884L49.7315 16.5923L48.5154 16.922Z" fill="#282828"/>
<path d="M62.3689 14.0303L62.7155 4.02627L64.3245 4.08235L67.2826 12.5065L67.3105 12.5075L70.8166 4.30859L72.4536 4.36564L72.1069 14.3696L70.9037 14.3277L71.1887 6.10064L71.1607 6.09967C70.9654 6.61584 70.8016 7.03039 70.6694 7.34331L67.6856 14.2156L66.7202 14.1819L64.2193 7.11852L63.8152 5.84368L63.7872 5.8427L63.5022 14.0698L62.3689 14.0303Z" fill="#282828"/>
<path d="M81.52 15.2655C80.4246 16.0046 79.1565 16.1964 77.7157 15.8408C76.2749 15.4852 75.2369 14.7244 74.6016 13.5582C73.9754 12.3942 73.8444 11.0737 74.2086 9.59664C74.5728 8.11954 75.3026 7.01147 76.3981 6.2724C77.5026 5.53558 78.7753 5.34495 80.216 5.70051C81.6568 6.05607 82.6903 6.81582 83.3165 7.97976C83.9518 9.14594 84.0874 10.4676 83.7231 11.9447C83.3589 13.4218 82.6246 14.5287 81.52 15.2655ZM75.6728 13.015C76.1057 13.9102 76.875 14.4941 77.9805 14.767C79.086 15.0398 80.0384 14.8807 80.8378 14.2897C81.6372 13.6987 82.1822 12.8141 82.4727 11.6361C82.7631 10.458 82.6919 9.42143 82.2589 8.52629C81.8282 7.62208 81.0601 7.03357 79.9546 6.76075C78.8491 6.48793 77.8955 6.65156 77.0939 7.25164C76.2945 7.84265 75.7495 8.72718 75.4591 9.90523C75.1686 11.0833 75.2398 12.1199 75.6728 13.015Z" fill="#282828"/>
<path d="M83.7368 17.3513L87.9417 8.26736L92.1845 10.233C92.9806 10.6018 93.5183 11.1287 93.7978 11.8136C94.0857 12.5025 94.0572 13.2196 93.7121 13.9649C93.175 15.1253 92.303 15.6316 91.096 15.4839L91.0784 15.522C91.4527 15.8909 91.6527 16.2921 91.6783 16.7257C91.7162 17.1548 91.5956 17.7263 91.3164 18.4405C90.864 19.6401 90.7038 20.3528 90.8358 20.5786L90.8123 20.6294L89.5801 20.0585C89.5223 19.9391 89.529 19.7468 89.6004 19.4816C89.6802 19.2202 89.877 18.684 90.1908 17.8727C90.4543 17.1924 90.5048 16.6501 90.3423 16.2457C90.1883 15.8452 89.8022 15.5017 89.184 15.2153L86.6561 14.0441L84.88 17.881L83.7368 17.3513ZM88.6263 9.788L87.0854 13.1167L89.7785 14.3643C90.4051 14.6547 90.946 14.7304 91.4011 14.5915C91.8602 14.4442 92.2112 14.1079 92.4543 13.5828C92.717 13.0153 92.7671 12.5293 92.6046 12.1249C92.4422 11.7205 92.0349 11.3672 91.3828 11.0651L88.6263 9.788Z" fill="#282828"/>
<path d="M91.7067 21.1995L97.3844 12.9555L103.206 16.968L102.578 17.8788L97.7945 14.5815L95.9999 17.1873L100.346 20.1827L99.7421 21.059L95.3964 18.0636L93.4033 20.9576L98.3253 24.3503L97.6662 25.3073L91.7067 21.1995Z" fill="#282828"/>
<path d="M103.609 26.5264L104.321 25.8737L108.359 30.2818L107.647 30.9346L103.609 26.5264Z" fill="#282828"/>
<path d="M110.025 40.3022C109.359 39.135 109.133 38.0709 109.348 37.1099C109.567 36.1571 110.124 35.3924 111.02 34.816L111.631 35.886C110.223 36.8837 109.989 38.2054 110.928 39.8508C111.284 40.475 111.707 40.8948 112.195 41.1103C112.696 41.3292 113.21 41.2882 113.737 40.9873C113.972 40.853 114.153 40.6904 114.281 40.4993C114.408 40.3083 114.491 40.1156 114.531 39.921C114.575 39.7346 114.574 39.488 114.528 39.1812C114.481 38.8744 114.424 38.5953 114.356 38.344C114.293 38.1009 114.195 37.7697 114.063 37.3505C113.906 36.8492 113.793 36.4248 113.723 36.0774C113.662 35.7254 113.637 35.3526 113.649 34.9589C113.661 34.5653 113.763 34.2168 113.955 33.9135C114.16 33.6136 114.461 33.3503 114.858 33.1234C115.571 32.716 116.283 32.6641 116.994 32.9676C117.717 33.2745 118.333 33.8738 118.842 34.7655C119.957 36.719 119.68 38.3335 118.012 39.6091L117.422 38.5756C117.992 38.1427 118.322 37.6478 118.412 37.0909C118.511 36.5294 118.375 35.9244 118.005 35.2759C117.663 34.6761 117.268 34.2673 116.821 34.0495C116.379 33.8399 115.935 33.8624 115.49 34.117C115.295 34.2281 115.142 34.3641 115.029 34.525C114.93 34.6894 114.862 34.8625 114.826 35.0443C114.803 35.2295 114.809 35.4466 114.843 35.6956C114.883 35.9526 114.932 36.1987 114.991 36.4337C115.058 36.6642 115.146 36.9415 115.256 37.2657C115.406 37.7173 115.519 38.0936 115.594 38.3947C115.677 38.6911 115.74 39.0367 115.783 39.4315C115.826 39.8264 115.806 40.1598 115.725 40.4319C115.649 40.7121 115.499 40.9963 115.277 41.2846C115.067 41.5763 114.772 41.831 114.391 42.0486C113.597 42.5023 112.804 42.5629 112.012 42.2304C111.234 41.9014 110.571 41.2587 110.025 40.3022Z" fill="#282828"/>
<path d="M112.435 44.2578L121.845 40.8457L122.275 42.0304L118.273 43.4811L120.095 48.5093L124.096 47.0586L124.525 48.2432L115.115 51.6553L114.686 50.4706L119.134 48.8577L117.313 43.8295L112.864 45.4424L112.435 44.2578Z" fill="#282828"/>
<path d="M118.032 60.885C116.927 60.1592 116.261 59.0631 116.034 57.5966C115.806 56.1302 116.108 54.8791 116.939 53.8433C117.771 52.8167 118.939 52.1866 120.442 51.9531C121.946 51.7197 123.25 51.9658 124.354 52.6916C125.46 53.4266 126.126 54.5273 126.354 55.9937C126.582 57.4602 126.279 58.7067 125.447 59.7333C124.616 60.7691 123.449 61.4037 121.945 61.6372C120.442 61.8707 119.137 61.62 118.032 60.885ZM117.853 54.6222C117.194 55.3668 116.952 56.3017 117.127 57.4269C117.301 58.5521 117.815 59.3695 118.669 59.8792C119.523 60.3889 120.549 60.5507 121.748 60.3645C122.947 60.1783 123.876 59.7128 124.535 58.9682C125.203 58.2222 125.45 57.2865 125.275 56.1613C125.1 55.0361 124.582 54.2194 123.719 53.7111C122.865 53.2014 121.839 53.0397 120.64 53.2259C119.441 53.4121 118.512 53.8776 117.853 54.6222Z" fill="#282828"/>
</svg>
